<svg xmlns="http://www.w3.org/2000/svg" width="263" height="263" fill="none">
<g transform="rotate(15 1058.65 -1393.161)">
<rect x="451" y="213" width="213" height="213" rx="0" fill="#E2241A"></rect>
<path fill-rule="evenodd" clip-rule="evenodd" d="M580.837 381.713v21.485c3.495 1.791 7.627 3.134 12.398 4.029s9.799 1.343 15.085 1.343c5.152 0 10.046-.493 14.683-1.478 4.636-.984 8.701-2.607 12.196-4.867 3.494-2.261 6.26-5.215 8.298-8.863 2.038-3.648 3.058-8.157 3.058-13.529 0-3.894-.583-7.307-1.748-10.239a23.914 23.914 0 0 0-5.039-7.821c-2.195-2.283-4.827-4.331-7.896-6.144-3.068-1.813-6.529-3.525-10.381-5.136-2.823-1.164-5.354-2.294-7.593-3.391-2.24-1.096-4.144-2.215-5.712-3.357-1.568-1.141-2.777-2.35-3.629-3.625-.851-1.276-1.276-2.72-1.276-4.331 0-1.477.38-2.809 1.142-3.995.762-1.186 1.837-2.204 3.225-3.055 1.389-.85 3.091-1.51 5.107-1.98s4.256-.705 6.72-.705c1.792 0 3.684.134 5.678.403 1.993.268 3.998.682 6.014 1.242a41.629 41.629 0 0 1 5.879 2.115 32.35 32.35 0 0 1 5.275 2.954v-20.075c-3.27-1.254-6.842-2.182-10.717-2.787-3.875-.604-8.321-.906-13.339-.906-5.107 0-9.945.548-14.514 1.645-4.569 1.097-8.59 2.809-12.062 5.136-3.471 2.328-6.215 5.293-8.231 8.896-2.016 3.604-3.024 7.912-3.024 12.925 0 6.401 1.848 11.861 5.544 16.382 3.696 4.521 9.306 8.348 16.832 11.481a227.659 227.659 0 0 1 8.265 3.559c2.554 1.163 4.76 2.372 6.619 3.625 1.859 1.254 3.326 2.619 4.401 4.096 1.076 1.477 1.613 3.155 1.613 5.035a7.7 7.7 0 0 1-1.008 3.861c-.672 1.186-1.691 2.216-3.057 3.088-1.367.873-3.069 1.556-5.107 2.048-2.038.493-4.424.739-7.156.739-4.659 0-9.273-.817-13.843-2.451-4.569-1.634-8.802-4.084-12.7-7.352Zm-35.811-53.467h27.629v-17.69h-77.01v17.69h27.494v78.768h21.887v-78.768Z" fill="#fff"></path>
</g>
</svg>